<?xml version="1.0" encoding="utf-8"?>
<!-- Generator: Adobe Illustrator 27.0.0, SVG Export Plug-In . SVG Version: 6.00 Build 0)  -->
<svg version="1.1" id="Layer_1" xmlns="http://www.w3.org/2000/svg" xmlns:xlink="http://www.w3.org/1999/xlink" x="0px" y="0px"
	 viewBox="0 0 88.9 86" style="enable-background:new 0 0 88.9 86;" xml:space="preserve">
<style type="text/css">
	.st0{fill:#FFFFFF;stroke:#02946D;stroke-width:3;stroke-miterlimit:10;}
</style>
<path class="st0" d="M83.7,2.6L43.8,45.5l-12.2-17c-0.9-1.4-2.8-1.8-4.2-0.9s-1.8,2.8-0.9,4.2c0,0.1,0.1,0.1,0.1,0.2L41,52
	c0.5,0.7,1.3,1.2,2.2,1.2h0.2c0.8,0,1.6-0.4,2.2-1L88.1,6.7c1.1-1.2,1.1-3.1-0.2-4.2S84.8,1.4,83.7,2.6L83.7,2.6z"/>
<path class="st0" d="M81.6,32.1c-1.6,0.3-2.7,1.9-2.3,3.5C79.8,38,80,40.5,80,43c0,20.4-16.6,37-37,37S6,63.5,6,43S22.6,6,43,6
	c6.1,0,12.2,1.5,17.6,4.4c1.5,0.8,3.3,0.3,4.1-1.2c0.8-1.5,0.3-3.3-1.2-4.1C42.6-6.1,16.5,1.7,5.2,22.5s-3.5,47,17.4,58.3
	s47,3.5,58.3-17.4C84.2,57.2,86,50.2,86,43c0-2.9-0.3-5.8-0.9-8.6C84.8,32.8,83.2,31.8,81.6,32.1z"/>
</svg>
