<svg id="Layer_1" data-name="Layer 1" xmlns="http://www.w3.org/2000/svg" viewBox="0 0 91.88 89">
  <defs>
    <style>
      .cls-1 {
        fill: #fff;
        stroke: #fff;
        stroke-miterlimit: 10;
        stroke-width: 3px;
      }
    </style>
  </defs>
  <path class="cls-1" d="M85.18,4.12L45.28,47.02l-12.2-17c-.9-1.4-2.8-1.8-4.2-.9s-1.8,2.8-.9,4.2c0,.1,.1,.1,.1,.2l14.4,20c.5,.7,1.3,1.2,2.2,1.2h.2c.8,0,1.6-.4,2.2-1L89.58,8.22c1.1-1.2,1.1-3.1-.2-4.2s-3.1-1.1-4.2,.1h0Z"/>
  <path class="cls-1" d="M83.08,33.62c-1.6,.3-2.7,1.9-2.3,3.5,.5,2.4,.7,4.9,.7,7.4,0,20.4-16.6,37-37,37S7.48,65.02,7.48,44.52,24.08,7.52,44.48,7.52c6.1,0,12.2,1.5,17.6,4.4,1.5,.8,3.3,.3,4.1-1.2,.8-1.5,.3-3.3-1.2-4.1C44.08-4.58,17.98,3.22,6.68,24.02c-11.3,20.8-3.5,47,17.4,58.3,20.9,11.3,47,3.5,58.3-17.4,3.3-6.2,5.1-13.2,5.1-20.4,0-2.9-.3-5.8-.9-8.6-.3-1.6-1.9-2.6-3.5-2.3Z"/>
</svg>