<?xml version="1.0" encoding="utf-8"?>
<!-- Generator: Adobe Illustrator 27.0.0, SVG Export Plug-In . SVG Version: 6.00 Build 0)  -->
<svg version="1.1" id="Layer_1" xmlns="http://www.w3.org/2000/svg" xmlns:xlink="http://www.w3.org/1999/xlink" x="0px" y="0px"
	 viewBox="0 0 60 75" style="enable-background:new 0 0 60 75;" xml:space="preserve">
<style type="text/css">
	.st0{fill:#FFFFFF;}
</style>
<path class="st0" d="M33.3,36.6l10.1-10.1c0.9-0.9,0.9-2.4,0-3.3s-2.4-0.9-3.3,0L30,33.3L19.9,23.2c-0.9-0.9-2.4-0.9-3.3,0
	s-0.9,2.4,0,3.3l10.1,10.1L16.6,46.7c-0.9,0.9-0.9,2.4,0,3.3c0.9,0.9,2.4,0.9,3.3,0L30,39.9L40.1,50c0.9,0.9,2.4,0.9,3.3,0
	s0.9-2.4,0-3.3l0,0L33.3,36.6z"/>
</svg>
