<?xml version="1.0" encoding="UTF-8"?>
<svg id="Layer_1" data-name="Layer 1" xmlns="http://www.w3.org/2000/svg" viewBox="0 0 56.13 44.89">
  <defs>
    <style>
      .cls-1 {
        fill: #02946d;
      }
    </style>
  </defs>
  <path class="cls-1" d="M30.4,0h-4.68c-3.87,0-7,3.13-7,7h0V29.34c0,2.93,1.84,5.54,4.59,6.55v9h2.75v-8.57h4v8.55h2.71v-9c2.75-1.01,4.58-3.62,4.59-6.55V6.98c-.01-3.84-3.12-6.96-6.96-6.98Zm0,33.61h-4.68c-2.36,0-4.26-1.91-4.27-4.27v-.43h4.49v-2.72h-4.49v-2.63h4.49v-2.71h-4.49v-2.12h4.49v-2.71h-4.49v-2.46h4.49v-2.72h-4.49v-3.86c0-2.36,1.91-4.26,4.27-4.27h4.69c2.36,0,4.26,1.91,4.27,4.27v3.86h-4.5v2.71h4.49v2.46h-4.49v2.71h4.49v2.12h-4.49v2.71h4.49v2.64h-4.49v2.71h4.49v.43c0,2.36-1.91,4.27-4.27,4.28ZM2.71,18.19c-.01,5.58,1.83,11.01,5.25,15.43l-2.15,1.66C-1.94,25.2-1.94,11.16,5.81,1.08l2.15,1.65C4.54,7.15,2.69,12.6,2.71,18.19Zm53.42,0c.02,6.2-2.03,12.22-5.82,17.12l-2.15-1.69c6.99-9.11,6.99-21.78,0-30.89l2.15-1.65c3.79,4.9,5.84,10.92,5.82,17.11Zm-6.47,0c0,3.64-.92,7.23-2.68,10.42l-2.38-1.31c3.1-5.63,3.12-12.46,.06-18.11l2.4-1.33c1.71,3.17,2.6,6.72,2.59,10.33h0ZM11.52,9.04c-3.11,5.64-3.13,12.49-.06,18.15l-2.4,1.26c-3.5-6.47-3.47-14.28,.08-20.73l2.38,1.32Zm31.66,4.44c1,3.23,.94,6.7-.17,9.9l-2.56-.89c.92-2.65,.97-5.52,.15-8.2l2.58-.81Zm-28.24,4.71c0,1.47,.25,2.93,.73,4.32l-2.56,.89c-1.11-3.2-1.17-6.67-.17-9.9l2.59,.8c-.39,1.26-.59,2.57-.59,3.89Z"/>
</svg>