<?xml version="1.0" encoding="utf-8"?>
<!-- Generator: Adobe Illustrator 27.0.0, SVG Export Plug-In . SVG Version: 6.00 Build 0)  -->
<svg version="1.1" id="Layer_1" xmlns="http://www.w3.org/2000/svg" xmlns:xlink="http://www.w3.org/1999/xlink" x="0px" y="0px"
	 viewBox="0 0 252.9 252.9" style="enable-background:new 0 0 252.9 252.9;" xml:space="preserve">
<style type="text/css">
	.st0{fill:#02946D;}
</style>
<polygon class="st0" points="69.9,64.7 162.4,188.2 183.3,188.2 90.9,64.7 "/>
<path class="st0" d="M126.4,0L126.4,0C56.6,0,0,56.6,0,126.4l0,0c0,69.8,56.6,126.4,126.4,126.4l0,0c69.8,0,126.4-56.6,126.4-126.4
	l0,0C252.9,56.6,196.3,0,126.4,0z M157.4,198.1l-42.1-56.3l-52.1,56.3H49.9l59.5-64.3L50.2,54.8h45.6l38.8,51.8l48-51.8h13.4
	l-55.4,59.8l62.4,83.5L157.4,198.1L157.4,198.1z"/>
</svg>
